<svg width="182" height="22" viewBox="0 0 182 22" fill="none" xmlns="http://www.w3.org/2000/svg">
<path d="M29.233 3.90909L33.1194 14.929H33.2728L37.1591 3.90909H38.8211L34.0142 17H32.3779L27.5711 3.90909H29.233ZM43.858 17.2045C42.912 17.2045 42.0959 16.9957 41.4098 16.5781C40.728 16.1562 40.2017 15.5682 39.831 14.8139C39.4645 14.0554 39.2813 13.1733 39.2813 12.1676C39.2813 11.1619 39.4645 10.2756 39.831 9.50852C40.2017 8.73722 40.7174 8.13636 41.3779 7.70597C42.0427 7.27131 42.8182 7.05398 43.7046 7.05398C44.216 7.05398 44.7209 7.1392 45.2195 7.30966C45.7181 7.48011 46.1719 7.7571 46.581 8.14062C46.9901 8.51989 47.3161 9.02273 47.559 9.64915C47.8019 10.2756 47.9233 11.0469 47.9233 11.9631V12.6023H40.3552V11.2983H46.3892C46.3892 10.7443 46.2785 10.25 46.0569 9.81534C45.8395 9.38068 45.5285 9.03764 45.1236 8.78622C44.7231 8.5348 44.25 8.40909 43.7046 8.40909C43.1037 8.40909 42.5839 8.55824 42.1449 8.85653C41.7103 9.15057 41.3758 9.53409 41.1414 10.0071C40.907 10.4801 40.7898 10.9872 40.7898 11.5284V12.3977C40.7898 13.1392 40.9177 13.7678 41.1733 14.2834C41.4333 14.7947 41.7934 15.1847 42.2536 15.4531C42.7138 15.7173 43.2486 15.8494 43.858 15.8494C44.2543 15.8494 44.6123 15.794 44.9319 15.6832C45.2557 15.5682 45.5348 15.3977 45.7692 15.1719C46.0036 14.9418 46.1847 14.6562 46.3125 14.3153L47.7699 14.7244C47.6165 15.2188 47.3587 15.6534 46.9965 16.0284C46.6343 16.3991 46.1868 16.6889 45.6542 16.8977C45.1215 17.1023 44.5228 17.2045 43.858 17.2045ZM50.2181 17V7.18182H51.6755V8.66477H51.7777C51.9567 8.17898 52.2806 7.7848 52.7493 7.48224C53.2181 7.17969 53.7465 7.02841 54.3346 7.02841C54.4454 7.02841 54.5839 7.03054 54.75 7.0348C54.9162 7.03906 55.0419 7.04545 55.1272 7.05398V8.58807C55.076 8.57528 54.9589 8.55611 54.7756 8.53054C54.5966 8.50071 54.407 8.4858 54.2067 8.4858C53.7294 8.4858 53.3033 8.58594 52.9283 8.78622C52.5576 8.98224 52.2635 9.25497 52.0462 9.6044C51.8331 9.94957 51.7266 10.3437 51.7266 10.7869V17H50.2181ZM56.9153 17V7.18182H58.4239V17H56.9153ZM57.6824 5.54545C57.3884 5.54545 57.1348 5.44531 56.9217 5.24503C56.7129 5.04474 56.6085 4.80398 56.6085 4.52273C56.6085 4.24148 56.7129 4.00071 56.9217 3.80043C57.1348 3.60014 57.3884 3.5 57.6824 3.5C57.9764 3.5 58.2278 3.60014 58.4367 3.80043C58.6497 4.00071 58.7563 4.24148 58.7563 4.52273C58.7563 4.80398 58.6497 5.04474 58.4367 5.24503C58.2278 5.44531 57.9764 5.54545 57.6824 5.54545ZM65.559 7.18182V8.46023H60.2664V7.18182H65.559ZM61.8516 17V5.8267C61.8516 5.2642 61.9837 4.79545 62.2479 4.42045C62.5121 4.04545 62.8552 3.7642 63.277 3.5767C63.6989 3.3892 64.1442 3.29545 64.613 3.29545C64.9837 3.29545 65.2863 3.32528 65.5206 3.38494C65.755 3.4446 65.9297 3.5 66.0448 3.55114L65.6101 4.85511C65.5334 4.82954 65.4269 4.79758 65.2905 4.75923C65.1584 4.72088 64.9837 4.7017 64.7664 4.7017C64.2678 4.7017 63.9077 4.82741 63.6861 5.07884C63.4688 5.33026 63.3601 5.69886 63.3601 6.18466V17H61.8516ZM67.6732 17V7.18182H69.1817V17H67.6732ZM68.4402 5.54545C68.1462 5.54545 67.8926 5.44531 67.6796 5.24503C67.4707 5.04474 67.3663 4.80398 67.3663 4.52273C67.3663 4.24148 67.4707 4.00071 67.6796 3.80043C67.8926 3.60014 68.1462 3.5 68.4402 3.5C68.7342 3.5 68.9857 3.60014 69.1945 3.80043C69.4075 4.00071 69.5141 4.24148 69.5141 4.52273C69.5141 4.80398 69.4075 5.04474 69.1945 5.24503C68.9857 5.44531 68.7342 5.54545 68.4402 5.54545ZM76.0611 17.2045C75.1151 17.2045 74.2991 16.9957 73.613 16.5781C72.9312 16.1562 72.4049 15.5682 72.0341 14.8139C71.6677 14.0554 71.4844 13.1733 71.4844 12.1676C71.4844 11.1619 71.6677 10.2756 72.0341 9.50852C72.4049 8.73722 72.9205 8.13636 73.581 7.70597C74.2458 7.27131 75.0214 7.05398 75.9077 7.05398C76.4191 7.05398 76.9241 7.1392 77.4226 7.30966C77.9212 7.48011 78.375 7.7571 78.7841 8.14062C79.1932 8.51989 79.5192 9.02273 79.7621 9.64915C80.005 10.2756 80.1265 11.0469 80.1265 11.9631V12.6023H72.5583V11.2983H78.5924C78.5924 10.7443 78.4816 10.25 78.26 9.81534C78.0427 9.38068 77.7316 9.03764 77.3267 8.78622C76.9262 8.5348 76.4532 8.40909 75.9077 8.40909C75.3069 8.40909 74.787 8.55824 74.3481 8.85653C73.9134 9.15057 73.5789 9.53409 73.3445 10.0071C73.1101 10.4801 72.9929 10.9872 72.9929 11.5284V12.3977C72.9929 13.1392 73.1208 13.7678 73.3765 14.2834C73.6364 14.7947 73.9965 15.1847 74.4567 15.4531C74.9169 15.7173 75.4517 15.8494 76.0611 15.8494C76.4574 15.8494 76.8154 15.794 77.135 15.6832C77.4589 15.5682 77.738 15.3977 77.9723 15.1719C78.2067 14.9418 78.3878 14.6562 78.5157 14.3153L79.9731 14.7244C79.8196 15.2188 79.5618 15.6534 79.1996 16.0284C78.8374 16.3991 78.39 16.6889 77.8573 16.8977C77.3246 17.1023 76.7259 17.2045 76.0611 17.2045ZM86.1286 17.2045C85.3104 17.2045 84.5881 16.9979 83.9617 16.5845C83.3353 16.1669 82.8452 15.5788 82.4915 14.8203C82.1378 14.0575 81.961 13.1562 81.961 12.1165C81.961 11.0852 82.1378 10.1903 82.4915 9.43182C82.8452 8.6733 83.3374 8.08736 83.9681 7.67401C84.5988 7.26065 85.3275 7.05398 86.1542 7.05398C86.7934 7.05398 87.2983 7.16051 87.6691 7.37358C88.0441 7.58239 88.3296 7.82102 88.5256 8.08949C88.7259 8.35369 88.8814 8.57102 88.9922 8.74148H89.1201V3.90909H90.6286V17H89.1712V15.4915H88.9922C88.8814 15.6705 88.7238 15.8963 88.5192 16.169C88.3147 16.4375 88.0228 16.6783 87.6435 16.8913C87.2642 17.1001 86.7593 17.2045 86.1286 17.2045ZM86.3331 15.8494C86.9383 15.8494 87.4496 15.6918 87.8672 15.3764C88.2848 15.0568 88.6023 14.6158 88.8196 14.0533C89.037 13.4865 89.1456 12.8324 89.1456 12.0909C89.1456 11.358 89.0391 10.7166 88.826 10.1669C88.613 9.61293 88.2976 9.18253 87.88 8.87571C87.4624 8.56463 86.9468 8.40909 86.3331 8.40909C85.6939 8.40909 85.1613 8.57315 84.7351 8.90128C84.3133 9.22514 83.9958 9.66619 83.7827 10.2244C83.5739 10.7784 83.4695 11.4006 83.4695 12.0909C83.4695 12.7898 83.576 13.4247 83.7891 13.9957C84.0064 14.5625 84.326 15.0142 84.7479 15.3509C85.1741 15.6832 85.7025 15.8494 86.3331 15.8494ZM109.402 8H107.817C107.723 7.54403 107.559 7.14347 107.325 6.7983C107.095 6.45312 106.813 6.16335 106.481 5.92898C106.153 5.69034 105.788 5.51136 105.388 5.39205C104.987 5.27273 104.57 5.21307 104.135 5.21307C103.342 5.21307 102.624 5.41335 101.981 5.81392C101.342 6.21449 100.832 6.80469 100.453 7.58452C100.078 8.36435 99.8907 9.32102 99.8907 10.4545C99.8907 11.5881 100.078 12.5447 100.453 13.3246C100.832 14.1044 101.342 14.6946 101.981 15.0952C102.624 15.4957 103.342 15.696 104.135 15.696C104.57 15.696 104.987 15.6364 105.388 15.517C105.788 15.3977 106.153 15.2209 106.481 14.9865C106.813 14.7479 107.095 14.456 107.325 14.1108C107.559 13.7614 107.723 13.3608 107.817 12.9091H109.402C109.283 13.5781 109.065 14.1768 108.75 14.7053C108.435 15.2337 108.043 15.6832 107.574 16.054C107.105 16.4205 106.579 16.6996 105.995 16.8913C105.416 17.0831 104.795 17.179 104.135 17.179C103.019 17.179 102.026 16.9062 101.156 16.3608C100.287 15.8153 99.603 15.0398 99.1044 14.0341C98.6059 13.0284 98.3566 11.8352 98.3566 10.4545C98.3566 9.07386 98.6059 7.88068 99.1044 6.875C99.603 5.86932 100.287 5.09375 101.156 4.5483C102.026 4.00284 103.019 3.73011 104.135 3.73011C104.795 3.73011 105.416 3.82599 105.995 4.01776C106.579 4.20952 107.105 4.49077 107.574 4.86151C108.043 5.22798 108.435 5.67543 108.75 6.20384C109.065 6.72798 109.283 7.3267 109.402 8ZM117.947 12.9858V7.18182H119.455V17H117.947V15.3381H117.844C117.614 15.8366 117.256 16.2607 116.77 16.6101C116.285 16.9553 115.671 17.1278 114.93 17.1278C114.316 17.1278 113.77 16.9936 113.293 16.7251C112.816 16.4524 112.441 16.0433 112.168 15.4979C111.895 14.9482 111.759 14.2557 111.759 13.4205V7.18182H113.268V13.3182C113.268 14.0341 113.468 14.6051 113.868 15.0312C114.273 15.4574 114.789 15.6705 115.415 15.6705C115.79 15.6705 116.172 15.5746 116.56 15.3828C116.952 15.1911 117.28 14.897 117.544 14.5007C117.812 14.1044 117.947 13.5994 117.947 12.9858ZM129.173 9.38068L127.818 9.7642C127.732 9.53835 127.607 9.31889 127.44 9.10582C127.278 8.88849 127.057 8.70952 126.776 8.56889C126.494 8.42827 126.134 8.35795 125.695 8.35795C125.095 8.35795 124.594 8.49645 124.193 8.77344C123.797 9.04616 123.599 9.39347 123.599 9.81534C123.599 10.1903 123.735 10.4865 124.008 10.7038C124.281 10.9212 124.707 11.1023 125.286 11.2472L126.744 11.6051C127.621 11.8182 128.276 12.1442 128.706 12.5831C129.136 13.0178 129.352 13.5781 129.352 14.2642C129.352 14.8267 129.19 15.3295 128.866 15.7727C128.546 16.2159 128.099 16.5653 127.523 16.821C126.948 17.0767 126.279 17.2045 125.516 17.2045C124.515 17.2045 123.686 16.9872 123.03 16.5526C122.374 16.1179 121.958 15.483 121.783 14.6477L123.215 14.2898C123.352 14.8182 123.609 15.2145 123.989 15.4787C124.372 15.7429 124.873 15.875 125.491 15.875C126.194 15.875 126.752 15.7259 127.166 15.4276C127.583 15.125 127.792 14.7628 127.792 14.3409C127.792 14 127.673 13.7145 127.434 13.4844C127.195 13.25 126.829 13.0753 126.335 12.9602L124.698 12.5767C123.799 12.3636 123.139 12.0334 122.717 11.5859C122.299 11.1342 122.09 10.5696 122.09 9.89205C122.09 9.33807 122.246 8.84801 122.557 8.42188C122.872 7.99574 123.3 7.66122 123.842 7.41832C124.387 7.17543 125.005 7.05398 125.695 7.05398C126.667 7.05398 127.43 7.26705 127.984 7.69318C128.542 8.11932 128.938 8.68182 129.173 9.38068ZM135.892 7.18182V8.46023H130.804V7.18182H135.892ZM132.287 4.82955H133.796V14.1875C133.796 14.6136 133.857 14.9332 133.981 15.1463C134.109 15.3551 134.271 15.4957 134.467 15.5682C134.667 15.6364 134.878 15.6705 135.1 15.6705C135.266 15.6705 135.402 15.6619 135.509 15.6449C135.615 15.6236 135.701 15.6065 135.764 15.5938L136.071 16.9489C135.969 16.9872 135.826 17.0256 135.643 17.0639C135.46 17.1065 135.227 17.1278 134.946 17.1278C134.52 17.1278 134.102 17.0362 133.693 16.853C133.289 16.6697 132.952 16.3906 132.683 16.0156C132.419 15.6406 132.287 15.1676 132.287 14.5966V4.82955ZM142.045 17.2045C141.158 17.2045 140.381 16.9936 139.712 16.5717C139.047 16.1499 138.527 15.5597 138.152 14.8011C137.781 14.0426 137.596 13.1562 137.596 12.142C137.596 11.1193 137.781 10.2266 138.152 9.46378C138.527 8.70099 139.047 8.10866 139.712 7.68679C140.381 7.26491 141.158 7.05398 142.045 7.05398C142.931 7.05398 143.707 7.26491 144.371 7.68679C145.04 8.10866 145.56 8.70099 145.931 9.46378C146.306 10.2266 146.493 11.1193 146.493 12.142C146.493 13.1562 146.306 14.0426 145.931 14.8011C145.56 15.5597 145.04 16.1499 144.371 16.5717C143.707 16.9936 142.931 17.2045 142.045 17.2045ZM142.045 15.8494C142.718 15.8494 143.272 15.6768 143.707 15.3317C144.141 14.9865 144.463 14.5327 144.672 13.9702C144.881 13.4077 144.985 12.7983 144.985 12.142C144.985 11.4858 144.881 10.8743 144.672 10.3075C144.463 9.74077 144.141 9.28267 143.707 8.93324C143.272 8.58381 142.718 8.40909 142.045 8.40909C141.371 8.40909 140.817 8.58381 140.383 8.93324C139.948 9.28267 139.626 9.74077 139.417 10.3075C139.209 10.8743 139.104 11.4858 139.104 12.142C139.104 12.7983 139.209 13.4077 139.417 13.9702C139.626 14.5327 139.948 14.9865 140.383 15.3317C140.817 15.6768 141.371 15.8494 142.045 15.8494ZM148.796 17V7.18182H150.254V8.71591H150.381C150.586 8.19176 150.916 7.7848 151.372 7.49503C151.828 7.20099 152.376 7.05398 153.015 7.05398C153.663 7.05398 154.202 7.20099 154.632 7.49503C155.067 7.7848 155.406 8.19176 155.648 8.71591H155.751C156.002 8.20881 156.379 7.80611 156.882 7.50781C157.385 7.20526 157.988 7.05398 158.691 7.05398C159.569 7.05398 160.287 7.32884 160.845 7.87855C161.403 8.42401 161.683 9.27415 161.683 10.429V17H160.174V10.429C160.174 9.70455 159.976 9.18679 159.58 8.87571C159.183 8.56463 158.717 8.40909 158.18 8.40909C157.489 8.40909 156.955 8.6179 156.575 9.03551C156.196 9.44886 156.006 9.97301 156.006 10.608V17H154.472V10.2756C154.472 9.71733 154.291 9.26776 153.929 8.92685C153.567 8.58168 153.1 8.40909 152.529 8.40909C152.137 8.40909 151.771 8.51349 151.43 8.7223C151.093 8.93111 150.82 9.22088 150.612 9.59162C150.407 9.9581 150.305 10.3821 150.305 10.8636V17H148.796ZM168.557 17.2045C167.611 17.2045 166.795 16.9957 166.109 16.5781C165.427 16.1562 164.901 15.5682 164.53 14.8139C164.164 14.0554 163.981 13.1733 163.981 12.1676C163.981 11.1619 164.164 10.2756 164.53 9.50852C164.901 8.73722 165.417 8.13636 166.077 7.70597C166.742 7.27131 167.517 7.05398 168.404 7.05398C168.915 7.05398 169.42 7.1392 169.919 7.30966C170.417 7.48011 170.871 7.7571 171.28 8.14062C171.689 8.51989 172.015 9.02273 172.258 9.64915C172.501 10.2756 172.623 11.0469 172.623 11.9631V12.6023H165.054V11.2983H171.088C171.088 10.7443 170.978 10.25 170.756 9.81534C170.539 9.38068 170.228 9.03764 169.823 8.78622C169.422 8.5348 168.949 8.40909 168.404 8.40909C167.803 8.40909 167.283 8.55824 166.844 8.85653C166.409 9.15057 166.075 9.53409 165.841 10.0071C165.606 10.4801 165.489 10.9872 165.489 11.5284V12.3977C165.489 13.1392 165.617 13.7678 165.873 14.2834C166.133 14.7947 166.493 15.1847 166.953 15.4531C167.413 15.7173 167.948 15.8494 168.557 15.8494C168.954 15.8494 169.311 15.794 169.631 15.6832C169.955 15.5682 170.234 15.3977 170.468 15.1719C170.703 14.9418 170.884 14.6562 171.012 14.3153L172.469 14.7244C172.316 15.2188 172.058 15.6534 171.696 16.0284C171.333 16.3991 170.886 16.6889 170.353 16.8977C169.821 17.1023 169.222 17.2045 168.557 17.2045ZM174.917 17V7.18182H176.375V8.66477H176.477C176.656 8.17898 176.98 7.7848 177.449 7.48224C177.917 7.17969 178.446 7.02841 179.034 7.02841C179.145 7.02841 179.283 7.03054 179.449 7.0348C179.615 7.03906 179.741 7.04545 179.826 7.05398V8.58807C179.775 8.57528 179.658 8.55611 179.475 8.53054C179.296 8.50071 179.106 8.4858 178.906 8.4858C178.429 8.4858 178.003 8.58594 177.628 8.78622C177.257 8.98224 176.963 9.25497 176.745 9.6044C176.532 9.94957 176.426 10.3437 176.426 10.7869V17H174.917Z" fill="#1AC70E"/>
<path d="M19.621 10.3748L17.4449 7.89543L17.7481 4.61336L14.5285 3.88203L12.8429 1.0459L9.81052 2.34802L6.77818 1.0459L5.09255 3.88203L1.87292 4.60444L2.17615 7.88651L0 10.3748L2.17615 12.8542L1.87292 16.1452L5.09255 16.8765L6.77818 19.7126L9.81052 18.4016L12.8429 19.7037L14.5285 16.8676L17.7481 16.1362L17.4449 12.8542L19.621 10.3748ZM8.02679 14.8341L4.45933 11.2666L5.71686 10.0091L8.02679 12.3101L13.9042 6.43277L15.1617 7.69922L8.02679 14.8341Z" fill="#00C744"/>
</svg>
