<svg width="18" height="18" viewBox="0 0 18 18" fill="none" xmlns="http://www.w3.org/2000/svg">
<path fill-rule="evenodd" clip-rule="evenodd" d="M8.99274 18C10.1737 18 11.3431 17.7672 12.4341 17.3149C13.5252 16.8626 14.5165 16.1997 15.3516 15.364C16.1866 14.5282 16.849 13.5361 17.3009 12.4442C17.7529 11.3522 17.9855 10.1819 17.9855 9C17.9855 7.8181 17.7529 6.64778 17.3009 5.55585C16.849 4.46392 16.1866 3.47177 15.3516 2.63604C14.5165 1.80031 13.5252 1.13738 12.4341 0.685084C11.3431 0.232792 10.1737 -1.76116e-08 8.99274 0C6.60771 3.55683e-08 4.32038 0.948211 2.63391 2.63604C0.947446 4.32387 0 6.61305 0 9C0 11.3869 0.947446 13.6761 2.63391 15.364C4.32038 17.0518 6.60771 18 8.99274 18ZM8.76092 12.64L13.7569 6.64L12.2221 5.36L7.9256 10.519L5.70239 8.293L4.28954 9.707L7.28711 12.707L8.06049 13.481L8.76092 12.64Z" fill="#00A113"/>
</svg>
