<svg width="129" height="20" viewBox="0 0 129 20" fill="none" xmlns="http://www.w3.org/2000/svg">
<path d="M11.0731 15.8791L17.9163 19.7579L16.1003 12.4475L22.1462 7.52878L14.1847 6.89445L11.0731 0L7.96158 6.89445L0 7.52878L6.04593 12.4475L4.22993 19.7579L11.0731 15.8791Z" fill="#FFA601"/>
<path d="M37.6483 15.8791L44.4915 19.7579L42.6755 12.4475L48.7214 7.52878L40.7599 6.89445L37.6483 0L34.5368 6.89445L26.5752 7.52878L32.6211 12.4475L30.8051 19.7579L37.6483 15.8791Z" fill="#FFA601"/>
<path d="M64.2235 15.8791L71.0667 19.7579L69.2507 12.4475L75.2966 7.52878L67.3351 6.89445L64.2235 0L61.112 6.89445L53.1504 7.52878L59.1963 12.4475L57.3803 19.7579L64.2235 15.8791Z" fill="#989898"/>
<path d="M90.7987 15.8791L97.6419 19.7579L95.8259 12.4475L101.872 7.52878L93.9103 6.89445L90.7987 0L87.6872 6.89445L79.7256 7.52878L85.7715 12.4475L83.9555 19.7579L90.7987 15.8791Z" fill="#989898"/>
<path d="M117.375 15.8791L124.218 19.7579L122.402 12.4475L128.448 7.52878L120.486 6.89445L117.375 0L114.263 6.89445L106.302 7.52878L112.348 12.4475L110.532 19.7579L117.375 15.8791Z" fill="#989898"/>
</svg>
