<svg width="110" height="18" viewBox="0 0 110 18" fill="none" xmlns="http://www.w3.org/2000/svg">
<path d="M26.2797 17.3222L27.7612 10.9176L22.7925 6.6098L29.3567 6.03999L31.9094 0L34.4622 6.03999L41.0264 6.6098L36.0577 10.9176L37.5392 17.3222L31.9094 13.9262L26.2797 17.3222Z" fill="#FCD116"/>
<path d="M3.48724 17.3222L4.96874 10.9176L0 6.6098L6.56421 6.03999L9.11696 0L11.6697 6.03999L18.2339 6.6098L13.2652 10.9176L14.7467 17.3222L9.11696 13.9262L3.48724 17.3222Z" fill="#FCD116"/>
<path d="M49.072 17.3222L50.5535 10.9176L45.5847 6.6098L52.1489 6.03999L54.7017 0L57.2544 6.03999L63.8186 6.6098L58.8499 10.9176L60.3314 17.3222L54.7017 13.9262L49.072 17.3222Z" fill="#FCD116"/>
<path d="M71.8644 17.3222L73.3459 10.9176L68.3772 6.6098L74.9414 6.03999L77.4942 0L80.0469 6.03999L86.6111 6.6098L81.6424 10.9176L83.1239 17.3222L77.4942 13.9262L71.8644 17.3222Z" fill="#FCD116"/>
<path d="M94.6569 17.3222L96.1384 10.9176L91.1697 6.6098L97.7339 6.03999L100.287 0L102.839 6.03999L109.404 6.6098L104.435 10.9176L105.916 17.3222L100.287 13.9262L94.6569 17.3222Z" fill="#FCD116"/>
</svg>
