<svg width="115" height="22" viewBox="0 0 115 22" fill="none" xmlns="http://www.w3.org/2000/svg">
<path d="M14.5871 10.9965L12.9693 9.059L13.1947 6.49422L10.8011 5.92272L9.54794 3.70642L7.29357 4.72397L5.03919 3.70642L3.78603 5.92272L1.39241 6.48725L1.61785 9.05203L0 10.9965L1.61785 12.934L1.39241 15.5058L3.78603 16.0773L5.03919 18.2936L7.29357 17.269L9.54794 18.2866L10.8011 16.0703L13.1947 15.4988L12.9693 12.934L14.5871 10.9965ZM5.96746 14.4812L3.31526 11.6934L4.25016 10.7107L5.96746 12.5089L10.337 7.916L11.2719 8.90567L5.96746 14.4812Z" fill="#1BBA86"/>
<path d="M31.2322 6.42L28.2682 15H25.6422L22.6652 6.42H25.0182L26.5262 11.607L26.9812 13.297L27.4232 11.633L28.9572 6.42H31.2322ZM34.6382 15.13C33.9275 15.13 33.3122 15 32.7922 14.74C32.2722 14.4713 31.8692 14.0857 31.5832 13.583C31.3058 13.0717 31.1672 12.4607 31.1672 11.75C31.1672 11.0307 31.3102 10.4197 31.5962 9.917C31.8822 9.41433 32.2765 9.033 32.7792 8.773C33.2905 8.50433 33.8755 8.37 34.5342 8.37C35.2102 8.37 35.7865 8.50433 36.2632 8.773C36.7398 9.033 37.1038 9.397 37.3552 9.865C37.6065 10.3243 37.7322 10.853 37.7322 11.451C37.7322 11.6157 37.7278 11.776 37.7192 11.932C37.7105 12.0793 37.6975 12.205 37.6802 12.309H32.5972V11.126H36.7052L35.6522 11.529C35.6522 11.1823 35.6088 10.892 35.5222 10.658C35.4442 10.4153 35.3228 10.2333 35.1582 10.112C34.9935 9.982 34.7855 9.917 34.5342 9.917C34.2655 9.917 34.0358 9.982 33.8452 10.112C33.6545 10.242 33.5115 10.4457 33.4162 10.723C33.3208 11.0003 33.2732 11.3557 33.2732 11.789C33.2732 12.2137 33.3252 12.5603 33.4292 12.829C33.5418 13.089 33.6978 13.2797 33.8972 13.401C34.1052 13.5137 34.3522 13.57 34.6382 13.57C34.9502 13.57 35.2058 13.505 35.4052 13.375C35.6045 13.245 35.7475 13.063 35.8342 12.829L37.6022 13.414C37.4808 13.7867 37.2685 14.103 36.9652 14.363C36.6705 14.6143 36.3195 14.805 35.9122 14.935C35.5135 15.065 35.0888 15.13 34.6382 15.13ZM38.97 15V8.5H40.92L41.011 9.904C41.167 9.41867 41.4053 9.04167 41.726 8.773C42.0467 8.50433 42.4497 8.37 42.935 8.37C43.0997 8.37 43.2383 8.383 43.351 8.409C43.4637 8.435 43.5547 8.46967 43.624 8.513L43.403 10.333C43.3337 10.307 43.234 10.281 43.104 10.255C42.974 10.229 42.8093 10.216 42.61 10.216C42.3587 10.216 42.1203 10.2723 41.895 10.385C41.6783 10.4977 41.505 10.6667 41.375 10.892C41.245 11.1087 41.18 11.386 41.18 11.724V15H38.97ZM46.7025 8.5V15H44.4925V8.5H46.7025ZM45.5975 7.746C45.1468 7.746 44.8175 7.66367 44.6095 7.499C44.4101 7.32567 44.3105 7.057 44.3105 6.693C44.3105 6.32033 44.4101 6.05167 44.6095 5.887C44.8175 5.71367 45.1468 5.627 45.5975 5.627C46.0481 5.627 46.3731 5.71367 46.5725 5.887C46.7805 6.05167 46.8845 6.32033 46.8845 6.693C46.8845 7.057 46.7805 7.32567 46.5725 7.499C46.3731 7.66367 46.0481 7.746 45.5975 7.746ZM51.2527 5.562C51.5993 5.562 51.907 5.601 52.1757 5.679C52.4443 5.74833 52.6437 5.83067 52.7737 5.926L52.5527 7.304C52.466 7.252 52.3577 7.20867 52.2277 7.174C52.1063 7.13067 51.959 7.109 51.7857 7.109C51.491 7.109 51.2483 7.17833 51.0577 7.317C50.867 7.447 50.7717 7.68967 50.7717 8.045V8.89L50.9017 9.254V15H48.6917V7.902C48.6917 7.34733 48.8087 6.901 49.0427 6.563C49.2853 6.21633 49.6017 5.965 49.9917 5.809C50.3817 5.64433 50.802 5.562 51.2527 5.562ZM52.7087 8.5V10.073H47.6777V8.5H52.7087ZM55.8177 8.5V15H53.6077V8.5H55.8177ZM54.7127 7.746C54.262 7.746 53.9327 7.66367 53.7247 7.499C53.5254 7.32567 53.4257 7.057 53.4257 6.693C53.4257 6.32033 53.5254 6.05167 53.7247 5.887C53.9327 5.71367 54.262 5.627 54.7127 5.627C55.1634 5.627 55.4884 5.71367 55.6877 5.887C55.8957 6.05167 55.9997 6.32033 55.9997 6.693C55.9997 7.057 55.8957 7.32567 55.6877 7.499C55.4884 7.66367 55.1634 7.746 54.7127 7.746ZM60.5239 15.13C59.8132 15.13 59.1979 15 58.6779 14.74C58.1579 14.4713 57.7549 14.0857 57.4689 13.583C57.1916 13.0717 57.0529 12.4607 57.0529 11.75C57.0529 11.0307 57.1959 10.4197 57.4819 9.917C57.7679 9.41433 58.1622 9.033 58.6649 8.773C59.1762 8.50433 59.7612 8.37 60.4199 8.37C61.0959 8.37 61.6722 8.50433 62.1489 8.773C62.6256 9.033 62.9896 9.397 63.2409 9.865C63.4922 10.3243 63.6179 10.853 63.6179 11.451C63.6179 11.6157 63.6136 11.776 63.6049 11.932C63.5962 12.0793 63.5832 12.205 63.5659 12.309H58.4829V11.126H62.5909L61.5379 11.529C61.5379 11.1823 61.4946 10.892 61.4079 10.658C61.3299 10.4153 61.2086 10.2333 61.0439 10.112C60.8792 9.982 60.6712 9.917 60.4199 9.917C60.1512 9.917 59.9216 9.982 59.7309 10.112C59.5402 10.242 59.3972 10.4457 59.3019 10.723C59.2066 11.0003 59.1589 11.3557 59.1589 11.789C59.1589 12.2137 59.2109 12.5603 59.3149 12.829C59.4276 13.089 59.5836 13.2797 59.7829 13.401C59.9909 13.5137 60.2379 13.57 60.5239 13.57C60.8359 13.57 61.0916 13.505 61.2909 13.375C61.4902 13.245 61.6332 13.063 61.7199 12.829L63.4879 13.414C63.3666 13.7867 63.1542 14.103 62.8509 14.363C62.5562 14.6143 62.2052 14.805 61.7979 14.935C61.3992 15.065 60.9746 15.13 60.5239 15.13ZM67.2087 15.13C66.6801 15.13 66.2164 15 65.8177 14.74C65.4277 14.4713 65.1201 14.0857 64.8947 13.583C64.6781 13.0803 64.5697 12.478 64.5697 11.776C64.5697 11.048 64.6824 10.4327 64.9077 9.93C65.1417 9.41867 65.4581 9.033 65.8567 8.773C66.2641 8.50433 66.7321 8.37 67.2607 8.37C67.8501 8.37 68.3224 8.54767 68.6777 8.903C69.0331 9.25833 69.2584 9.71767 69.3537 10.281L69.1457 10.554V5.744H71.3557V15H69.3797L69.2367 12.79L69.4967 12.985C69.4361 13.4097 69.3017 13.7867 69.0937 14.116C68.8944 14.4367 68.6344 14.688 68.3137 14.87C67.9931 15.0433 67.6247 15.13 67.2087 15.13ZM67.9757 13.505C68.2184 13.505 68.4264 13.4357 68.5997 13.297C68.7731 13.1583 68.9074 12.959 69.0027 12.699C69.0981 12.4303 69.1457 12.101 69.1457 11.711C69.1457 11.347 69.0981 11.0393 69.0027 10.788C68.9161 10.528 68.7861 10.333 68.6127 10.203C68.4394 10.0643 68.2314 9.995 67.9887 9.995C67.6161 9.995 67.3214 10.138 67.1047 10.424C66.8967 10.71 66.7927 11.152 66.7927 11.75C66.7927 12.348 66.8967 12.79 67.1047 13.076C67.3127 13.362 67.6031 13.505 67.9757 13.505ZM76.8184 15V6.42H80.9134C81.9447 6.42 82.7074 6.61933 83.2014 7.018C83.6954 7.41667 83.9424 7.98867 83.9424 8.734C83.9424 9.21067 83.7994 9.62667 83.5134 9.982C83.2361 10.3373 82.8114 10.5627 82.2394 10.658V10.671C82.8807 10.7577 83.3574 10.9873 83.6694 11.36C83.9901 11.7327 84.1504 12.1747 84.1504 12.686C84.1504 13.4227 83.8947 13.9947 83.3834 14.402C82.8807 14.8007 82.1267 15 81.1214 15H76.8184ZM78.9764 13.427H80.7314C81.1127 13.427 81.3944 13.3447 81.5764 13.18C81.7671 13.0153 81.8624 12.777 81.8624 12.465C81.8624 12.1617 81.7671 11.932 81.5764 11.776C81.3944 11.6113 81.1127 11.529 80.7314 11.529H78.9764V13.427ZM78.9764 9.93H80.5234C80.8961 9.93 81.1777 9.852 81.3684 9.696C81.5591 9.53133 81.6544 9.29733 81.6544 8.994C81.6544 8.682 81.5591 8.448 81.3684 8.292C81.1777 8.136 80.8961 8.058 80.5234 8.058H78.9764V9.93ZM87.5678 15.13C87.1344 15.13 86.7488 15.0563 86.4108 14.909C86.0814 14.753 85.8214 14.506 85.6308 14.168C85.4488 13.83 85.3578 13.388 85.3578 12.842V8.5H87.5678V12.322C87.5678 12.6947 87.6371 12.9763 87.7758 13.167C87.9231 13.349 88.1614 13.44 88.4908 13.44C88.6381 13.44 88.7768 13.414 88.9068 13.362C89.0454 13.3013 89.1624 13.2147 89.2578 13.102C89.3618 12.9807 89.4398 12.829 89.4918 12.647C89.5524 12.4563 89.5828 12.2353 89.5828 11.984V8.5H91.7928V15H89.8168L89.7518 13.778C89.6218 14.0813 89.4484 14.3327 89.2318 14.532C89.0238 14.7313 88.7811 14.883 88.5038 14.987C88.2264 15.0823 87.9144 15.13 87.5678 15.13ZM99.8561 8.5L97.5421 15C97.2994 15.6847 97.0351 16.2307 96.7491 16.638C96.4631 17.0453 96.1251 17.34 95.7351 17.522C95.3451 17.704 94.8771 17.795 94.3311 17.795C93.9671 17.795 93.6334 17.756 93.3301 17.678C93.0354 17.6 92.7754 17.4917 92.5501 17.353L92.9921 15.858C93.1394 15.9707 93.2998 16.0487 93.4731 16.092C93.6464 16.144 93.8674 16.17 94.1361 16.17C94.4394 16.17 94.6604 16.1137 94.7991 16.001C94.9378 15.897 95.0461 15.7453 95.1241 15.546L95.2801 15.143L94.5391 13.375L92.6151 8.5H95.0461L96.0211 12.205L96.3201 13.583L96.6841 12.153L97.6591 8.5H99.8561ZM103.764 15.13C103.053 15.13 102.438 15 101.918 14.74C101.398 14.4713 100.995 14.0857 100.709 13.583C100.432 13.0717 100.293 12.4607 100.293 11.75C100.293 11.0307 100.436 10.4197 100.722 9.917C101.008 9.41433 101.402 9.033 101.905 8.773C102.416 8.50433 103.001 8.37 103.66 8.37C104.336 8.37 104.912 8.50433 105.389 8.773C105.866 9.033 106.23 9.397 106.481 9.865C106.732 10.3243 106.858 10.853 106.858 11.451C106.858 11.6157 106.854 11.776 106.845 11.932C106.836 12.0793 106.823 12.205 106.806 12.309H101.723V11.126H105.831L104.778 11.529C104.778 11.1823 104.735 10.892 104.648 10.658C104.57 10.4153 104.449 10.2333 104.284 10.112C104.119 9.982 103.911 9.917 103.66 9.917C103.391 9.917 103.162 9.982 102.971 10.112C102.78 10.242 102.637 10.4457 102.542 10.723C102.447 11.0003 102.399 11.3557 102.399 11.789C102.399 12.2137 102.451 12.5603 102.555 12.829C102.668 13.089 102.824 13.2797 103.023 13.401C103.231 13.5137 103.478 13.57 103.764 13.57C104.076 13.57 104.332 13.505 104.531 13.375C104.73 13.245 104.873 13.063 104.96 12.829L106.728 13.414C106.607 13.7867 106.394 14.103 106.091 14.363C105.796 14.6143 105.445 14.805 105.038 14.935C104.639 15.065 104.215 15.13 103.764 15.13ZM108.096 15V8.5H110.046L110.137 9.904C110.293 9.41867 110.531 9.04167 110.852 8.773C111.173 8.50433 111.576 8.37 112.061 8.37C112.226 8.37 112.364 8.383 112.477 8.409C112.59 8.435 112.681 8.46967 112.75 8.513L112.529 10.333C112.46 10.307 112.36 10.281 112.23 10.255C112.1 10.229 111.935 10.216 111.736 10.216C111.485 10.216 111.246 10.2723 111.021 10.385C110.804 10.4977 110.631 10.6667 110.501 10.892C110.371 11.1087 110.306 11.386 110.306 11.724V15H108.096Z" fill="#1BBA86"/>
</svg>
